<?xml version="1.0" encoding="UTF-8" standalone="no"?><!DOCTYPE svg PUBLIC "-//W3C//DTD SVG 1.1//EN" "http://www.w3.org/Graphics/SVG/1.1/DTD/svg11.dtd"><svg width="100%" height="100%" viewBox="0 0 2121 1171" version="1.1" xmlns="http://www.w3.org/2000/svg" xmlns:xlink="http://www.w3.org/1999/xlink" xml:space="preserve" xmlns:serif="http://www.serif.com/" style="fill-rule:evenodd;clip-rule:evenodd;stroke-linejoin:round;stroke-miterlimit:2;"><g id="Background"><path d="M560.658,448.866c-40.835,0.367 -139.544,41.023 -175.118,45.772c-81.426,10.869 -168.592,73.614 -150.668,48.757c1.937,-2.686 57.574,-34.372 100.433,-49.935c13.58,-4.931 13.789,-4.004 170.581,-59.304c45.379,-16.005 164.742,-83.958 178.713,-91.912c109.263,-62.203 113.339,-61.982 338.282,-54.861c52.042,1.648 145.509,18.535 158.06,20.802c74.114,13.391 121.676,12.6 88.85,33.159c-6.569,4.114 -105.856,104.194 -107.845,107.475c-23.842,39.322 -75.399,79.351 -105.748,74.75c-32.921,-4.991 -40.191,-13.246 -46.84,7.311c-10.382,32.097 -57.515,65.809 -90.19,96.662c-11.568,10.923 -76.707,54.47 -83.507,59.016c-124.917,83.51 37.254,-23.033 132.246,-139.312c19.183,-23.482 18.253,-35.009 -11.297,-42.139c-30.332,-7.319 -148.045,-20.391 -150.032,-20.843c-9.21,-2.097 -10.148,6.347 -117.185,-14.494c-51.99,-10.123 -51.216,-12.88 -103.8,-19.243c-12.471,-1.509 -12.265,1.572 -24.936,-1.66l15.371,-15.158c1.17,1.692 -0.277,4.415 0.892,6.107c1.165,1.685 19.49,1.183 21.187,1.137c48.445,-1.327 48.119,-4.284 95.812,1.175c81.333,9.31 81.184,7.635 162.494,16.675c92.592,10.295 91.957,12.037 99.999,12.625c62.14,4.542 110.38,40.64 150.865,-14.53c19.451,-26.506 19.533,-25.775 41.869,-49.492c3.732,-3.963 44.805,-47.576 44.862,-51.166c0.225,-14.14 -228.078,-31.451 -254.436,-31.642c-73.065,-0.528 -72.827,-4.13 -79.167,-3.968c-111.036,2.84 -178.986,74.136 -284.376,113.078l-15.371,15.158Z" style="fill:#fefefe;fill-opacity:0.97;"/><path d="M862.514,898.017c6.569,115.2 146.842,150.793 230.418,49.25c15.877,-19.29 8.267,-28.711 71.217,-87.332c17.365,-16.171 115.356,-73.338 45.944,-20.638c-92.637,70.334 -63.592,142.728 -173.797,198.019c-133.832,67.145 -311.908,-85.542 -174.324,-296.455c12.687,-19.449 71.945,-60.736 102.354,-65.037c74.371,-10.519 121.383,4.162 155.71,92.739c24.46,63.115 -12.226,-7.567 -12.748,-8.685c-54.198,-116.095 -252.947,-55.763 -244.775,138.14Z" style="fill:#fefefe;fill-opacity:0.99;"/><path d="M1541.688,572.795c-0.091,8.406 -0.95,87.594 60.253,86.088c5.881,-0.145 18.792,-0.463 65.485,-33.444c1.376,-0.972 3.604,-10.214 15.018,-17.69c116.984,-76.614 116.35,-76.698 126.886,-82.679c12.52,-7.107 3.026,-13.707 12.992,-23.521c14.079,-13.864 -16.004,-22.812 -2.131,-39.903c19.891,-24.504 55.155,-35.134 41.705,-52.362c-10.183,-13.042 20.007,-31.517 23.717,-24.027c22.391,45.209 59.096,-46.888 66.685,-12.424c4.104,18.639 -54.295,31.836 -33.008,53.729c14.177,14.581 17.683,34.822 44.709,8.232c28.954,-28.488 33.828,-7.371 32.213,-4.658c-5.643,9.481 -52.798,28.562 -35.222,46.393c1.607,1.631 16.922,17.168 -8.196,27.426c-13.418,5.48 -16.343,-13.905 -29.324,-1.272c-46.326,45.086 -54.887,36.299 -58.629,32.459c-3.807,-3.908 -8.409,-18.957 -20.599,-7.483c-8.787,8.271 -15.636,-4.691 -37.346,16.738c-46.315,45.716 -50.866,40.207 -97.695,85.591c-2.438,2.363 -2.019,1.998 -4.199,4.183c-18.598,18.633 -24.533,9.635 -43.964,26.947c-100.908,89.904 -198.439,-41.12 -124.029,-166.171c60.865,-102.289 120.941,21.297 102.693,21.037c-1.123,-0.016 -60.861,-120.542 -95.062,40.404c-1.743,8.202 -1.406,7.812 -2.953,16.405Z" style="fill:#fefefe;fill-opacity:0.99;"/><path d="M656.35,683.32c70.173,0.265 69.741,0.066 95.931,4.28c80.616,12.971 35.876,95.634 -66.734,111.32c-32.471,4.964 -98.268,-25.684 -102.876,-31.467c-13.372,-16.781 31.95,8.948 44.29,10.866c71.963,11.184 91.181,-5.489 128.838,-43.274c27.935,-28.03 -124.7,-9.689 -141.58,-4.964c-8.39,2.348 -58.672,16.421 -68.474,84.687c-1.231,8.572 -23.59,94.113 5.197,133.872c49.372,68.187 119.222,39.928 209.455,45.222c7.892,0.463 8.168,7.462 -0,8.112c-104.313,8.292 -103.799,23.161 -158.475,13.638c-106.259,-18.507 -110.415,-130.162 -105.004,-159.495c18.583,-100.734 26.15,-164.78 159.432,-172.797Z" style="fill:#fefefe;fill-opacity:0.99;"/><path d="M176.31,659.563c-22.234,42.818 -52.186,143.239 -4.695,193.737c56.037,59.585 108.489,73.729 121.393,79.437c60.248,26.65 -14.454,5.582 -15.73,5.222c-187.238,-52.806 -164.738,-159.269 -164.895,-194.173c-0.131,-29.165 31.556,-119.811 61.844,-144.34c83.653,-67.745 159.931,99.658 111.562,108.258c-53.765,9.559 -98.231,-40.437 -109.479,-48.141l5.744,-7.303c8.557,7.177 32.126,29.667 70.147,35.293c53.801,7.96 -3.832,-53.434 -5.589,-54.625c-21.289,-14.423 -39.808,-32.382 -64.557,19.332l-5.744,7.303Z" style="fill:#fefefe;fill-opacity:0.98;"/><path d="M379.175,822.807c-16.25,82.186 9.384,114.712 73.615,144.367c7.561,3.491 64.274,14.945 36.543,16.963c-64.841,4.718 -172.92,-26.044 -152.701,-160.896c7.291,-48.629 26.863,-185.546 190.481,-254.791c28.42,-12.028 -5.872,7.2 -41.12,42.539c-21.388,21.444 -75.196,67.594 -105.913,199.096c-0,0 -0.832,11.704 -0.905,12.721Z" style="fill:#fefefe;fill-opacity:0.99;"/><path d="M1410.185,348.796c3.33,3.16 2.897,3.125 4.439,7.507c-15.096,3.305 -76.657,4.517 -74.978,20.772c11.506,111.356 -26.223,351.5 25.041,356.988c1.984,0.212 1.842,-0.146 24.862,-1.973c4.728,3.294 4.543,2.872 4.728,3.294c1,2.289 -1.864,1.737 -0.963,3.799c-4.838,1.649 -88.906,58.746 -89.005,-141.268c-0.031,-63.168 -0.931,-126.105 28.009,-253.78c1.38,-6.086 4.03,-10.45 77.866,4.659Z" style="fill:#fefefe;fill-opacity:0.99;"/><path d="M1285.421,786.107c1.424,2.605 2.847,5.21 4.271,7.815c-69.431,14.992 -60.199,-18.081 -76.337,-87.415c-0.617,-2.651 -2.049,-104.7 0.616,-116.977c4.437,-20.445 -9.559,-3.606 -44.871,9.875c-0.888,0.339 -24.276,9.268 -9.997,-6.424c4.766,-5.238 8.537,-17.049 35.985,-43.656c15.659,-15.179 26.55,-9.965 29.789,-47.184c0.061,-0.705 16.152,-96.984 19.325,-99.422c14.689,-11.286 -2.243,108.105 7.242,109.642c6.675,1.082 49.307,-28.891 24.13,9.269c-1.809,2.741 -4.304,0.557 -26.905,31.003c-2.6,3.502 -21.85,215.096 8.534,231.03c10.381,5.444 27.369,2.491 28.218,2.446Z" style="fill:#fefefe;fill-opacity:0.98;"/><path d="M1448.352,689.282c-3.375,-11.897 -23.309,-82.176 -13.775,-153.97c5.125,-38.597 19.823,-112.241 24.682,-82.971c11.358,68.429 12.633,68.138 11.629,137.196c-0.252,17.346 -12.653,98.935 -15.954,103.111c-0.97,1.227 -1.861,-4.967 -2.83,-3.741l-3.751,0.376Z" style="fill:#fefefe;fill-opacity:0.99;"/><path d="M1514.686,400.013c-29.266,-2.244 -33.243,-7.832 -42.937,0.767c-21.652,19.207 -34.264,-9.085 -33.887,-19.641c1.478,-41.383 46.409,-11.14 52.029,-10.025c59.213,11.753 80.356,28.898 119.929,48.702c17.856,8.936 18.692,23.042 9.957,17.79c-40.58,-24.395 -40.071,-28.088 -105.09,-37.594Z" style="fill:#fefefe;fill-opacity:0.96;"/></g></svg>